<svg width="108" height="45" viewBox="0 0 108 45" fill="none" xmlns="http://www.w3.org/2000/svg">
<path d="M24.5553 29.4315C19.7331 28.442 16.4654 26.2829 12.5389 20.8981H6.79198C12.538 28.431 21.135 32.5346 24.5553 32.7403C27.9757 32.946 38.516 33.0878 45.8017 38.139C43.2212 34.1813 38.711 30.699 30.9989 29.7798L24.5553 29.4315Z" fill="#EEF2FB"/>
<path d="M17.4157 17.7634L17.2168 17.3655C13.7608 10.4537 3.81643 10.6932 0.69722 17.7634H17.4157Z" fill="white"/>
<rect y="18.8081" width="18.46" height="2.08981" fill="white"/>
<path d="M32.0438 27.1677C32.0438 29.476 30.1725 31.3473 27.8642 31.3473C25.5558 31.3473 23.6846 29.476 23.6846 27.1677C23.6846 24.8593 25.5558 22.988 27.8642 22.988C30.1725 22.988 32.0438 24.8593 32.0438 27.1677Z" fill="white"/>
<path d="M73.5756 22.3644C73.5756 23.9046 73.2193 25.3069 72.5067 26.5712C71.7941 27.8126 70.7366 28.801 69.3343 29.5366C67.9551 30.2723 66.277 30.6401 64.3 30.6401H61.2656V38.3985H53.6106V13.9854H64.3C67.2884 13.9854 69.5757 14.744 71.1619 16.2612C72.771 17.7784 73.5756 19.8128 73.5756 22.3644ZM63.438 24.6058C65.0241 24.6058 65.8172 23.8586 65.8172 22.3644C65.8172 20.8702 65.0241 20.1231 63.438 20.1231H61.2656V24.6058H63.438Z" fill="white"/>
<path fill-rule="evenodd" clip-rule="evenodd" d="M87.6943 20.2484V14.1796H70.4534V14.4633C72.2681 14.779 73.7345 15.4715 74.8525 16.5409C76.4616 18.0581 77.2662 20.0925 77.2662 22.6442C77.2662 24.1844 76.9099 25.5866 76.1973 26.851C75.4847 28.0923 74.4272 29.0808 73.025 29.8164C72.2597 30.2245 71.4026 30.5194 70.4534 30.7011V38.5927H78.1084V29.386H85.0047V23.6276H78.1084V20.2484H87.6943Z" fill="white"/>
<path d="M98.6899 38.471C95.7704 38.471 93.3567 37.7928 91.4487 36.4366C89.5637 35.0573 88.5407 33.0458 88.3798 30.4022H96.5175C96.6325 31.8045 97.2531 32.5056 98.3795 32.5056C98.7933 32.5056 99.1381 32.4137 99.414 32.2298C99.7128 32.0229 99.8623 31.7125 99.8623 31.2988C99.8623 30.7241 99.5519 30.2643 98.9312 29.9195C98.3106 29.5517 97.3451 29.1379 96.0348 28.6781C94.4716 28.1264 93.1728 27.5862 92.1383 27.0575C91.1269 26.5288 90.2533 25.7587 89.5177 24.7472C88.7821 23.7358 88.4258 22.4369 88.4488 20.8508C88.4488 19.2646 88.8511 17.9198 89.6556 16.8164C90.4832 15.69 91.5981 14.8395 93.0004 14.2648C94.4256 13.6901 96.0233 13.4027 97.7933 13.4027C100.782 13.4027 103.15 14.0923 104.897 15.4716C106.667 16.8509 107.598 18.7934 107.69 21.299H99.4485C99.4255 20.6094 99.2531 20.1152 98.9312 19.8163C98.6094 19.5175 98.2186 19.3681 97.7589 19.3681C97.437 19.3681 97.1727 19.483 96.9658 19.7129C96.7589 19.9198 96.6554 20.2186 96.6554 20.6094C96.6554 21.1611 96.9543 21.6209 97.552 21.9887C98.1726 22.3335 99.1496 22.7588 100.483 23.2645C102.023 23.8392 103.287 24.3909 104.276 24.9196C105.287 25.4484 106.161 26.184 106.897 27.1265C107.632 28.069 108 29.2528 108 30.6781C108 32.1723 107.632 33.5171 106.897 34.7125C106.161 35.8848 105.092 36.8044 103.69 37.471C102.287 38.1377 100.621 38.471 98.6899 38.471Z" fill="white"/>
<mask id="mask0" mask-type="alpha" maskUnits="userSpaceOnUse" x="79" y="13" width="18" height="26">
<path d="M96.2972 13.9855V20.0543H86.7112V23.4335H93.6076V29.192H86.7112V38.3986H79.0562V13.9855H96.2972Z" fill="white"/>
</mask>
<g mask="url(#mask0)">
</g>
<path d="M47.2208 42.7715C47.2208 42.4845 47.2835 42.2282 47.4089 42.0025C47.5343 41.774 47.7057 41.5971 47.923 41.4717C48.1403 41.3435 48.3828 41.2794 48.6503 41.2794C48.9763 41.2794 49.2549 41.3574 49.4862 41.5135C49.7202 41.6667 49.8902 41.8841 49.9961 42.1655H49.6534C49.5698 41.9677 49.4416 41.813 49.2688 41.7016C49.0989 41.5901 48.8927 41.5344 48.6503 41.5344C48.4357 41.5344 48.242 41.5845 48.0693 41.6848C47.8993 41.7852 47.7656 41.93 47.668 42.1195C47.5705 42.3062 47.5218 42.5236 47.5218 42.7715C47.5218 43.0195 47.5705 43.2369 47.668 43.4236C47.7656 43.6103 47.8993 43.7538 48.0693 43.8541C48.242 43.9544 48.4357 44.0045 48.6503 44.0045C48.8927 44.0045 49.0989 43.9502 49.2688 43.8415C49.4416 43.7301 49.5698 43.5768 49.6534 43.3818H49.9961C49.8902 43.6604 49.7202 43.8764 49.4862 44.0296C49.2521 44.1829 48.9735 44.2595 48.6503 44.2595C48.3828 44.2595 48.1403 44.1968 47.923 44.0714C47.7057 43.9432 47.5343 43.7663 47.4089 43.5406C47.2835 43.3149 47.2208 43.0585 47.2208 42.7715Z" fill="white"/>
<path d="M52.9197 43.5406H51.5906L51.3356 44.2344H51.0263L52.0921 41.3505H52.4223L53.4839 44.2344H53.1746L52.9197 43.5406ZM52.8319 43.2982L52.2551 41.7183L51.6783 43.2982H52.8319Z" fill="white"/>
<path d="M56.3108 41.3129V41.5553H55.4999V44.2344H55.2074V41.5553H54.3923V41.3129H56.3108Z" fill="white"/>
<path d="M57.7132 41.5511V42.642H58.8208V42.8844H57.7132V43.992H58.9462V44.2344H57.4206V41.3087H58.9462V41.5511H57.7132Z" fill="white"/>
<path d="M61.7253 44.2344L61.0022 43.014H60.4631V44.2344H60.1705V41.3129H61.0482C61.3742 41.3129 61.6208 41.3909 61.788 41.5469C61.958 41.703 62.043 41.9078 62.043 42.1613C62.043 42.3731 61.9817 42.5542 61.8591 42.7047C61.7392 42.8523 61.5609 42.9485 61.3241 42.9931L62.0764 44.2344H61.7253ZM60.4631 42.7757H61.0524C61.2809 42.7757 61.4522 42.72 61.5665 42.6085C61.6835 42.4971 61.742 42.348 61.742 42.1613C61.742 41.9691 61.6863 41.8214 61.5748 41.7183C61.4634 41.6124 61.2878 41.5595 61.0482 41.5595H60.4631V42.7757Z" fill="white"/>
<path d="M63.564 41.3129V44.2344H63.2714V41.3129H63.564Z" fill="white"/>
<path d="M67.077 44.2344H66.7844L65.1669 41.7768V44.2344H64.8744V41.3129H65.1669L66.7844 43.7663V41.3129H67.077V44.2344Z" fill="white"/>
<path d="M70.6863 42.1655C70.6027 41.9732 70.4745 41.8228 70.3018 41.7141C70.1318 41.6026 69.9312 41.5469 69.6999 41.5469C69.4826 41.5469 69.2875 41.5971 69.1148 41.6974C68.942 41.7977 68.8055 41.9412 68.7052 42.1279C68.6049 42.3118 68.5547 42.5263 68.5547 42.7715C68.5547 43.0167 68.6049 43.2327 68.7052 43.4194C68.8055 43.6061 68.942 43.7496 69.1148 43.8499C69.2875 43.9502 69.4826 44.0003 69.6999 44.0003C69.9033 44.0003 70.0858 43.9572 70.2475 43.8708C70.4119 43.7816 70.5428 43.6562 70.6403 43.4946C70.7407 43.3302 70.7978 43.1393 70.8117 42.922H69.5829V42.6838H71.121V42.8969C71.1071 43.1533 71.0374 43.3859 70.912 43.5949C70.7866 43.8011 70.618 43.9641 70.4063 44.0839C70.1973 44.2038 69.9618 44.2637 69.6999 44.2637C69.4296 44.2637 69.1844 44.201 68.9643 44.0756C68.7442 43.9474 68.57 43.7705 68.4419 43.5448C68.3165 43.3163 68.2538 43.0585 68.2538 42.7715C68.2538 42.4845 68.3165 42.2282 68.4419 42.0025C68.57 41.774 68.7442 41.5971 68.9643 41.4717C69.1844 41.3435 69.4296 41.2794 69.6999 41.2794C70.012 41.2794 70.2851 41.3574 70.5191 41.5135C70.7532 41.6695 70.9232 41.8869 71.029 42.1655H70.6863Z" fill="white"/>
<path d="M77.6439 41.3129L76.8163 44.2344H76.4903L75.7547 41.7434L75.0024 44.2344L74.6847 44.2386L73.8739 41.3129H74.1873L74.8561 43.875L75.6042 41.3129H75.9302L76.6575 43.875L77.3304 41.3129H77.6439Z" fill="white"/>
<path d="M79.0318 41.3129V44.2344H78.7393V41.3129H79.0318Z" fill="white"/>
<path d="M82.0517 41.3129V41.5553H81.2408V44.2344H80.9483V41.5553H80.1332V41.3129H82.0517Z" fill="white"/>
<path d="M85.3307 41.3129V44.2344H85.0382V42.8677H83.4541V44.2344H83.1615V41.3129H83.4541V42.6253H85.0382V41.3129H85.3307Z" fill="white"/>
<path d="M90.8525 44.807L90.2005 44.201C90.0584 44.2428 89.9093 44.2637 89.7533 44.2637C89.483 44.2637 89.2378 44.201 89.0177 44.0756C88.7975 43.9474 88.6234 43.7705 88.4952 43.5448C88.3698 43.3163 88.3071 43.0585 88.3071 42.7715C88.3071 42.4845 88.3698 42.2282 88.4952 42.0025C88.6234 41.774 88.7975 41.5971 89.0177 41.4717C89.2378 41.3435 89.483 41.2794 89.7533 41.2794C90.0264 41.2794 90.2729 41.3435 90.4931 41.4717C90.7132 41.5971 90.886 41.774 91.0113 42.0025C91.1367 42.2282 91.1994 42.4845 91.1994 42.7715C91.1994 43.0669 91.1339 43.3302 91.003 43.5615C90.872 43.79 90.6923 43.9655 90.4638 44.0881L91.2454 44.807H90.8525ZM88.6081 42.7715C88.6081 43.0195 88.6582 43.2383 88.7585 43.4277C88.8588 43.6144 88.9954 43.7579 89.1681 43.8582C89.3409 43.9586 89.5359 44.0087 89.7533 44.0087C89.9706 44.0087 90.1657 43.9586 90.3384 43.8582C90.5112 43.7579 90.6477 43.6144 90.748 43.4277C90.8483 43.2383 90.8985 43.0195 90.8985 42.7715C90.8985 42.5236 90.8483 42.3062 90.748 42.1195C90.6477 41.9328 90.5112 41.7893 90.3384 41.689C90.1657 41.5887 89.9706 41.5386 89.7533 41.5386C89.5359 41.5386 89.3409 41.5887 89.1681 41.689C88.9954 41.7893 88.8588 41.9328 88.7585 42.1195C88.6582 42.3062 88.6081 42.5236 88.6081 42.7715Z" fill="white"/>
<path d="M92.6667 41.3129V43.1519C92.6667 43.4417 92.735 43.6562 92.8715 43.7955C93.0109 43.9349 93.2003 44.0045 93.44 44.0045C93.6796 44.0045 93.8663 43.9363 94 43.7997C94.1366 43.6604 94.2048 43.4445 94.2048 43.1519V41.3129H94.4974V43.1477C94.4974 43.5183 94.3985 43.7969 94.2007 43.9836C94.0056 44.1703 93.7506 44.2637 93.4358 44.2637C93.1209 44.2637 92.8646 44.1703 92.6667 43.9836C92.4717 43.7969 92.3742 43.5183 92.3742 43.1477V41.3129H92.6667Z" fill="white"/>
<path d="M97.4906 43.5406H96.1615L95.9065 44.2344H95.5972L96.663 41.3505H96.9932L98.0548 44.2344H97.7455L97.4906 43.5406ZM97.4028 43.2982L96.826 41.7183L96.2492 43.2982H97.4028Z" fill="white"/>
<path d="M99.4648 43.9962H100.514V44.2344H99.1722V41.3129H99.4648V43.9962Z" fill="white"/>
<path d="M101.872 41.3129V44.2344H101.579V41.3129H101.872Z" fill="white"/>
<path d="M104.892 41.3129V41.5553H104.081V44.2344H103.788V41.5553H102.973V41.3129H104.892Z" fill="white"/>
<path d="M107.932 41.3129L106.996 43.0976V44.2344H106.704V43.0976L105.759 41.3129H106.089L106.85 42.8301L107.606 41.3129H107.932Z" fill="white"/>
<path d="M8.07065 11.6735C7.75857 11.5694 7.51522 11.3874 7.34061 11.1273C7.16971 10.8673 7.08426 10.5589 7.08426 10.2022C7.08426 9.86416 7.16042 9.57066 7.31274 9.32174C7.46878 9.07282 7.68798 8.87777 7.97034 8.73659C8.25269 8.59913 8.58892 8.5304 8.97902 8.5304C9.36912 8.5304 9.70534 8.59913 9.9877 8.73659C10.2701 8.87777 10.4874 9.07282 10.6397 9.32174C10.7958 9.57066 10.8738 9.8623 10.8738 10.1967C10.8738 10.936 10.571 11.4115 9.96541 11.6233L9.83724 11.3502C10.0936 11.2648 10.2868 11.1292 10.4168 10.9434C10.5506 10.7577 10.6174 10.5143 10.6174 10.2134C10.6174 9.93846 10.5506 9.69512 10.4168 9.48335C10.2868 9.2753 10.0992 9.11368 9.85395 8.99851C9.60875 8.88334 9.3171 8.82576 8.97902 8.82576C8.64094 8.82576 8.34929 8.88148 8.10409 8.99294C7.85888 9.10811 7.66941 9.26787 7.53566 9.4722C7.40563 9.68025 7.34061 9.9236 7.34061 10.2022C7.34061 10.4995 7.4112 10.7521 7.55238 10.9601C7.69727 11.1682 7.90532 11.3131 8.17653 11.3948L8.07065 11.6735Z" fill="white"/>
</svg>
